<?xml version="1.0" encoding="utf-8"?>
<!-- Generator: Adobe Illustrator 19.2.1, SVG Export Plug-In . SVG Version: 6.00 Build 0)  -->
<svg version="1.1" id="Layer_1" xmlns="http://www.w3.org/2000/svg" xmlns:xlink="http://www.w3.org/1999/xlink" x="0px" y="0px"
	 viewBox="0 0 665.5 260.6" style="enable-background:new 0 0 665.5 260.6;" xml:space="preserve">
<style type="text/css">
	.st0{clip-path:url(#SVGID_2_);fill:#FFFFFF;}
	.st1{clip-path:url(#SVGID_2_);fill:#383838;}
</style>
<g>
	<g>
		<defs>
			<rect id="SVGID_1_" width="665.5" height="260.6"/>
		</defs>
		<clipPath id="SVGID_2_">
			<use xlink:href="#SVGID_1_"  style="overflow:visible;"/>
		</clipPath>
		<path class="st0" d="M27.9,162.9c3.8-1.8,8.8-6.6,8.8-12.7c0-8.4-7.3-14.8-16.9-14.8H1.5c-0.9,0-1.5,0.7-1.5,1.5v52.9
			c0,0.8,0.6,1.5,1.5,1.5h19.3c9.8,0,17.4-6.5,17.4-15.4C38.2,168.6,32.1,164.3,27.9,162.9 M10.3,145h8.5c4.1,0,6.9,2.8,6.9,6.8
			c0,4-2.8,7.2-6.9,7.2h-8.5V145z M20,181.9h-9.7v-14.2H19c4.2,0,8.1,3,8.1,7C27.1,178.8,24,181.9,20,181.9"/>
		<path class="st0" d="M100.9,145c0.9,0,1.5-0.7,1.5-1.5V137c0-0.8-0.6-1.5-1.5-1.5H68.4c-0.9,0-1.5,0.7-1.5,1.5v52.9
			c0,0.8,0.6,1.5,1.5,1.5h32.5c0.9,0,1.5-0.7,1.5-1.5v-6.5c0-0.8-0.6-1.5-1.5-1.5H77.2v-14h19.7c0.8,0,1.5-0.6,1.5-1.5v-6.6
			c0-0.8-0.7-1.5-1.5-1.5H77.2V145H100.9z"/>
		<path class="st0" d="M177,189.3l-24.6-53.8c-0.2-0.5-0.6-0.9-1.4-0.9h-0.8c-0.7,0-1.1,0.4-1.4,0.9l-24.8,53.8
			c-0.5,1,0.2,2.1,1.3,2.1h6.9c1.3,0,2-0.8,2.3-1.6l3.9-8.6h23.9l3.9,8.6c0.6,1.1,1.1,1.6,2.3,1.6h6.9
			C176.9,191.4,177.5,190.3,177,189.3 M142.5,172.3l7.8-17.6h0.2l8,17.6H142.5z"/>
		<path class="st0" d="M243.2,135.5h-7.6c-0.9,0-1.5,0.7-1.5,1.5v32.8c0,6.7-4.7,12.1-11.7,12.1s-11.6-5.4-11.6-12.1V137
			c0-0.8-0.6-1.5-1.5-1.5h-7.6c-0.8,0-1.5,0.7-1.5,1.5v33.2c0,12.1,9.7,22,22.2,22c12.6,0,22.3-9.8,22.3-22V137
			C244.8,136.2,244,135.5,243.2,135.5"/>
		<path class="st0" d="M306.2,135.5h-34.9c-0.9,0-1.5,0.7-1.5,1.5v6.6c0,0.8,0.6,1.5,1.5,1.5h12.2v44.8c0,0.8,0.7,1.5,1.5,1.5h7.4
			c0.8,0,1.5-0.7,1.5-1.5V145h12.2c0.9,0,1.5-0.7,1.5-1.5V137C307.8,136.2,307.1,135.5,306.2,135.5"/>
		<path class="st0" d="M342.6,135.5h-7.4c-0.8,0-1.5,0.7-1.5,1.5v52.9c0,0.8,0.7,1.5,1.5,1.5h7.4c0.8,0,1.5-0.7,1.5-1.5V137
			C344.1,136.2,343.4,135.5,342.6,135.5"/>
		<path class="st0" d="M406.3,160.1h-19.7v-15h14.6c-0.5-2.9-0.5-6.1,0-9.6h-23.5c-0.9,0-1.5,0.7-1.5,1.5v52.9
			c0,0.8,0.6,1.5,1.5,1.5h7.4c0.8,0,1.5-0.7,1.5-1.5v-20.2h19.7c0.8,0,1.5-0.7,1.5-1.5v-6.6C407.8,160.8,407.1,160.1,406.3,160.1"/>
		<path class="st0" d="M481,135.5h-7.6c-0.9,0-1.5,0.7-1.5,1.5v32.8c0,6.7-4.7,12.1-11.7,12.1c-7,0-11.6-5.4-11.6-12.1v-29.3
			L438,154.6v15.7c0,12.1,9.7,22,22.2,22c12.6,0,22.3-9.8,22.3-22V137C482.5,136.2,481.8,135.5,481,135.5"/>
		<path class="st0" d="M544.5,181.8h-20.4V137c0-0.8-0.7-1.5-1.5-1.5h-7.4c-0.9,0-1.5,0.7-1.5,1.5v52.9c0,0.8,0.6,1.5,1.5,1.5h29.2
			c0.9,0,1.5-0.7,1.5-1.5v-6.5C546.1,182.5,545.4,181.8,544.5,181.8"/>
		<path class="st0" d="M602.5,181.8h-20.4V137c0-0.8-0.7-1.5-1.5-1.5h-7.3c-0.9,0-1.5,0.7-1.5,1.5v52.9c0,0.8,0.6,1.5,1.5,1.5h29.2
			c0.9,0,1.5-0.7,1.5-1.5v-6.5C604,182.5,603.3,181.8,602.5,181.8"/>
		<path class="st0" d="M663.9,135.5h-8.2c-0.6,0-1,0.4-1.3,0.7l-12.8,18.4l-12.8-18.4c-0.2-0.3-0.6-0.7-1.3-0.7h-8.2
			c-1.3,0-1.9,1.3-1.3,2.3l18.2,26.7v25.4c0,0.8,0.6,1.5,1.5,1.5h7.4c0.8,0,1.5-0.7,1.5-1.5v-25.5l18.5-26.6
			C665.8,136.7,665.2,135.5,663.9,135.5"/>
		<path class="st1" d="M438,154.6c5-4.1,8-9.3,9.3-11.8l0-0.1l0,0c0.4-0.8,0.8-1.5,1.2-2.3L438,154.6z"/>
		<path class="st0" d="M80.4,100.1c0-7.9,5.9-17.1,18.2-17.1c5.8,0,11.2,2.1,19.1,7.6c3.1-5,5.5-10.7,7.5-15.5l12.7-31.5
			c3.9-10.1,12.1-15,20.1-15.5c1.2-0.1,2.3,0.7,2.7,1.9c0.3,1.1-0.1,2.4-1.1,3c-2.3,1.4-6.3,4.7-9.1,11.5l-4.1,10.2
			c12.7,4.3,28.4-2.6,28.4-18.1c0-10.5-8-19.4-23-19.4c-21.6,0-31.5,14.8-35.2,27.5c-1.7,6-0.5,14.3,0,17.7c0.2,0.9-0.2,1.9-1,2.5
			c-1.3,1-3.2,0.5-3.8-1.1c-1.3-3.1-2.9-8.4-2.9-14.7c0-21.3,16.1-42.1,44.3-42.1c20.4,0,33.3,13.5,33.3,29.9
			c0,21.8-21.5,25.6-21.5,25.6s14,7.5,14,25.1c0,14.3-9.3,31.2-29,31.2c-10.5,0-18.3-4.8-28.8-12.9c-5.5,6-12.4,10.6-21.9,10.6
			C86.8,116.6,80.4,108.5,80.4,100.1 M90.4,99.6c0,3.6,3.7,6.5,8.5,6.5s9.2-3.1,13.2-7.5c-4.7-3.4-9.2-6.3-13.4-6.3
			C93.7,92.3,90.4,96.2,90.4,99.6 M167.1,86c0-6-2.5-18-24.1-22.8c-2.8,7.1-5.8,14.5-7.6,18.8c-1.8,4.4-4.4,10.3-8,16
			c5.7,4.6,12.9,9.6,21.3,9.6C161.8,107.6,167.1,95.1,167.1,86"/>
		<path class="st0" d="M246.6,82.8c-8.5,14.8-22.4,30.9-42.1,30.9c-12.4,0-19.2-6.4-19.2-18.6c0-17.7,14.5-48.5,35.2-48.5
			c12.1,0,18.2,10.6,11.1,25.3c-6.4,13.4-17,16.6-32.7,14.9c0,0-7.1,18.6,8.5,18.6c11.9,0,24.7-10.8,33.9-26.4
			C243.1,78.9,245.9,80.9,246.6,82.8 M201.1,79.8c11.8,2.1,16.5-4.3,19.7-11.2c3.7-7.9,3.2-11.4-1.1-11.4
			C208.9,57.2,201.1,79.8,201.1,79.8"/>
		<path class="st0" d="M310.4,82.8c-9.5,16.5-20.5,30.9-33.2,30.9c-11.2,0-11.2-9.8-11.2-9.8s-7.4,9.8-17.3,9.8
			c-7.9,0-11.8-6-11.8-13.8c0-13.2,11.6-53.3,32.5-53.3c10.3,0,12.2,10,12.2,10l1.2-3c1.3-3.2,4.5-5.3,8-5.3h5.1c1,0,1.6,1,1.3,1.9
			l-16,39.6c-5,12.5-3.4,15.7-0.2,15.7c6.1,0,15.9-12.2,24.2-26.4C306.9,78.9,309.8,80.9,310.4,82.8 M267.3,91.6l10.2-25.2
			c0,0,0.1-8.9-6-8.9c-11.6,0-22.4,30.6-22.4,40.3c0,3.4,1.4,5,4.1,5C260.5,102.9,267.3,91.6,267.3,91.6"/>
		<path class="st0" d="M372.1,82.8c-9.3,16.4-20.7,30.9-33.1,30.9c-6.3,0-11.2-3.1-11.4-10.7c-5.3,5.9-11.1,10.7-18.1,10.7
			c-9.2,0-16-6.4-6.9-28.9l11.6-28.8c1.9-4.7,6.4-7.7,11.4-7.7h2c1.2,0,2.1,1.3,1.6,2.4l-15.8,39c-5,12.4-3.4,14.5-0.9,14.5
			c7.3,0,16.1-14.1,20.9-23.5l10.5-26.1c1.6-3.9,5.3-6.4,9.5-6.4h3.4c1.2,0,2.1,1.3,1.6,2.4l-15.8,39c-5,12.5-3.4,15.7-0.2,15.7
			c6.1,0,15.9-12.2,24.2-26.4C368.7,78.9,371.5,80.9,372.1,82.8"/>
		<path class="st0" d="M406.7,82.8c-9.3,16.4-21.3,30.9-34.8,30.9c-10.5,0-16.4-6.9-7.5-28.9l14.8-36.5h-11.3l2.7-6.6h11.3l4.5-11.2
			c1.6-3.9,5.4-6.5,9.6-6.5h3.1c1.4,0,2.3,1.4,1.8,2.6l-6.1,15.1h10.8l-2.7,6.6h-10.8l-16.7,41.4c-5.7,14-2.8,15.7,0,15.7
			c7.3,0,17.5-11.7,26.1-26.4C403.2,78.9,406.1,80.9,406.7,82.8"/>
		<path class="st0" d="M439.2,82.8c-9.8,17.1-20.8,30.9-33.1,30.9c-10,0-16-6.9-7.1-28.9l11.8-29.3c1.8-4.4,6-7.2,10.7-7.2h3.4
			c0.8,0,1.4,0.8,1.1,1.6l-16.1,39.9c-5.4,13.4-3.1,15.7-0.4,15.7c6.3,0,16-12.2,24.4-26.4C435.7,78.9,438.5,80.9,439.2,82.8
			 M418.6,33.1c0-4.2,3.3-7.5,7.5-7.5c4.2,0,7.6,3.3,7.6,7.5c0,4.2-3.4,7.6-7.6,7.6C421.9,40.7,418.6,37.3,418.6,33.1"/>
		<path class="st0" d="M486.6,82.8c-8.2,14.9-20.7,25.8-39.6,24.7c0,0,0.4,3.4-0.2,7.1c-1.4,7.9-4.3,16.4-8.1,23.2
			c-4.2,7.4-9.3,12.8-17.3,12.8c-8.5,0-14.1-6-7.7-21.8L450,38.7c7.5-19.1,15.3-24.7,24.1-24.7c9.8,0,14,8.4,9.7,22
			c-3,9.3-9.7,25.3-15.7,36.3c-6.4,11.6-10.9,17.1-26,17.6l-2.8,6.9c2.3,2.1,5.8,3.9,10.7,3.9c13.2,0,22.9-6.9,31.4-21.8
			C483.2,78.9,486,80.9,486.6,82.8 M436.3,104.2l-12.9,31.7c-2,5.3-0.7,6,0.1,6.1c6.9,1,14-19.9,15.7-28
			C440.6,107.5,439,105,436.3,104.2 M461.8,41.4l-16.8,41.4c6.1-0.9,9.7-4.4,14.1-12.5c9.1-17,14.8-32.6,16.2-37.6
			c1-3.4,1.8-8.2-1.1-8.2C469.4,24.5,465.2,32.9,461.8,41.4"/>
		<path class="st0" d="M548.4,82.8c-9.3,16.4-20.7,30.9-33.1,30.9c-6.3,0-11.2-3.1-11.4-10.7c-5.3,5.9-11.1,10.7-18.1,10.7
			c-9.2,0-16-6.4-6.9-28.9l11.9-29.3c1.8-4.3,6-7.2,10.7-7.2h3.5c0.8,0,1.3,0.8,1,1.5l-16.1,40c-5,12.4-3.4,14.5-0.9,14.5
			c7.3,0,16.1-14.1,20.9-23.5L520,55.4c1.8-4.4,6-7.2,10.7-7.2h3.5c0.8,0,1.3,0.8,1,1.5l-16.1,40c-5,12.5-3.4,15.7-0.2,15.7
			c6.1,0,15.9-12.2,24.2-26.4C544.9,78.9,547.8,80.9,548.4,82.8"/>
		<path class="st0" d="M580.8,82.8c-9.8,17.1-20.8,30.9-33.1,30.9c-10,0-16-6.9-7.1-28.9L562.3,31c1.8-4.3,6-7.2,10.7-7.2h3.5
			c0.8,0,1.3,0.8,1,1.5l-26,64.3c-5.4,13.4-3.1,15.7-0.4,15.7c5.8,0,14.5-10.3,22.4-23.1c1.6-2.7,5.7-2.7,7.1,0.1
			C580.7,82.5,580.8,82.6,580.8,82.8"/>
		<path class="st0" d="M218,23c0.1,0,0.2,0.1,0.2,0.2v8c0,0.6-0.6,1.2-1.2,1.2h-8.5c-0.6,0-1.2-0.6-1.2-1.2v-4.2
			c0-0.3-0.3-0.6-0.6-0.4l-0.8,0.3c-0.4,0.2-0.6,0.6-0.6,1v3.5c0,1.6,1.4,3,3,3h9c1.6,0,3-1.4,3-3v-9.4c0-0.4-0.3-0.8-0.6-0.8
			l-12-3.2c-0.1,0-0.2-0.1-0.2-0.2V9.7c0-0.6,0.6-1.2,1.2-1.2h8.2c0.6,0,1.2,0.6,1.2,1.2v4.2c0,0.3,0.3,0.6,0.6,0.4l0.8-0.3
			c0.4-0.2,0.6-0.6,0.6-1V9.5c0-1.6-1.4-3-3-3h-8.8c-1.6,0-3,1.4-3,3v9.4c0,0.4,0.3,0.8,0.6,0.8L218,23z"/>
		<path class="st0" d="M237.2,34.5c0.4,0,0.7-0.3,0.7-0.7V7.2c0-0.4-0.3-0.7-0.7-0.7h-0.7c-0.4,0-0.7,0.3-0.7,0.7v26.6
			c0,0.4,0.3,0.7,0.7,0.7H237.2z"/>
		<path class="st0" d="M264.5,28.6c0.4,0,0.8-0.2,1-0.6l7.3-16.6c0-0.1,0.1,0,0.1,0v22.5c0,0.4,0.3,0.7,0.7,0.7h0.7
			c0.4,0,0.7-0.3,0.7-0.7V7.2c0-0.4-0.3-0.7-0.7-0.7h-1c-0.4,0-0.8,0.2-1,0.6l-7.9,18c0,0.1-0.1,0.1-0.2,0l-7.8-18
			c-0.2-0.4-0.6-0.6-1-0.6h-1c-0.4,0-0.7,0.3-0.7,0.7v26.6c0,0.4,0.3,0.7,0.7,0.7h0.7c0.4,0,0.7-0.3,0.7-0.7V11.3c0,0,0.1-0.1,0.1,0
			l7.3,16.6c0.2,0.4,0.6,0.6,1,0.6H264.5z"/>
		<path class="st0" d="M303.6,8.5c0.6,0,1.2,0.6,1.2,1.2v9.5c0,0.6-0.6,1.2-1.2,1.2h-10.5c-0.1,0-0.2-0.1-0.2-0.2V8.7
			c0-0.1,0.1-0.2,0.2-0.2H303.6z M292.2,34.5c0.4,0,0.7-0.3,0.7-0.7V22.7c0-0.1,0.1-0.2,0.2-0.2h10.8c1.6,0,3-1.4,3-3v-10
			c0-1.6-1.4-3-3-3h-12.4c-0.4,0-0.7,0.3-0.7,0.7v26.6c0,0.4,0.3,0.7,0.7,0.7H292.2z"/>
		<path class="st0" d="M335.2,34.5c0.4,0,0.7-0.3,0.7-0.7v-0.7c0-0.4-0.3-0.7-0.7-0.7h-11.1c-0.1,0-0.2-0.1-0.2-0.2V7.2
			c0-0.4-0.3-0.7-0.7-0.7h-0.7c-0.4,0-0.7,0.3-0.7,0.7v26.6c0,0.4,0.3,0.7,0.7,0.7H335.2z"/>
		<path class="st0" d="M360,6.5c-0.4,0-0.8,0.2-1,0.6l-6.7,15c0,0.1-0.1,0.1-0.2,0l-6.7-15c-0.2-0.4-0.6-0.6-1-0.6h-1
			c-0.3,0-0.5,0.3-0.4,0.6l8,17.6c0,0.1,0.1,0.3,0.1,0.4v8.7c0,0.4,0.3,0.7,0.7,0.7h0.7c0.4,0,0.7-0.3,0.7-0.7v-8.7
			c0-0.1,0-0.3,0.1-0.4l8-17.6c0.1-0.3-0.1-0.6-0.4-0.6H360z"/>
		<path class="st0" d="M155.2,251.9l2.9-5c0.6-1.1,2-1.1,2.7-0.6c0.4,0.2,6.9,5,12.1,5c4.2,0,7.3-2.7,7.3-6.1
			c0-4.1-3.4-6.9-10.1-9.6c-7.5-3-15-7.8-15-17.3c0-7.1,5.3-15.3,18-15.3c8.1,0,14.4,4.2,16,5.4c0.8,0.5,1,1.8,0.5,2.6l-3,4.6
			c-0.6,1-1.8,1.6-2.8,1c-0.6-0.4-6.7-4.4-11.1-4.4c-4.6,0-7,3-7,5.6c0,3.8,3,6.3,9.4,8.9c7.7,3.1,16.7,7.7,16.7,18.1
			c0,8.2-7.1,15.8-18.4,15.8c-10.1,0-16-4.7-17.6-6.2C154.9,253.6,154.5,253.2,155.2,251.9"/>
		<path class="st0" d="M219.4,205.4c0-0.8,0.7-1.5,1.5-1.5h7.4c0.8,0,1.5,0.7,1.5,1.5v52.9c0,0.8-0.7,1.5-1.5,1.5h-7.4
			c-0.8,0-1.5-0.7-1.5-1.5V205.4z"/>
		<path class="st0" d="M267.8,204.3c0.1-0.6,0.6-1.2,1.4-1.2h1.3c0.6,0,1.1,0.3,1.4,0.8l17.6,37.7h0.2l17.6-37.7
			c0.2-0.5,0.6-0.8,1.4-0.8h1.3c0.9,0,1.4,0.6,1.4,1.2l9.4,53.7c0.2,1.1-0.4,1.8-1.4,1.8H312c-0.7,0-1.4-0.6-1.5-1.2l-4.7-30.3h-0.2
			l-14,31.4c-0.2,0.5-0.6,0.9-1.4,0.9h-1.4c-0.7,0-1.1-0.4-1.4-0.9l-14.1-31.4H273l-4.6,30.3c-0.1,0.6-0.7,1.2-1.4,1.2h-7.2
			c-1,0-1.7-0.7-1.5-1.8L267.8,204.3z"/>
		<path class="st0" d="M349.2,205.4c0-0.8,0.6-1.5,1.5-1.5h18.8c9.8,0,17.9,8,17.9,17.6c0,9.9-8.1,18-17.8,18h-10v18.8
			c0,0.8-0.7,1.5-1.5,1.5h-7.3c-0.9,0-1.5-0.7-1.5-1.5V205.4z M368.9,229.7c4.5,0,8.2-3.6,8.2-8.3c0-4.4-3.8-7.7-8.2-7.7h-9.3v16.1
			H368.9z"/>
		<path class="st0" d="M414.1,205.4c0-0.8,0.6-1.5,1.5-1.5h7.3c0.8,0,1.5,0.7,1.5,1.5v44.8h20.4c0.9,0,1.5,0.7,1.5,1.5v6.5
			c0,0.8-0.6,1.5-1.5,1.5h-29.2c-0.9,0-1.5-0.7-1.5-1.5V205.4z"/>
		<path class="st0" d="M472,205.4c0-0.8,0.6-1.5,1.5-1.5H506c0.9,0,1.5,0.7,1.5,1.5v6.5c0,0.8-0.6,1.5-1.5,1.5h-23.6v13.1h19.7
			c0.8,0,1.5,0.7,1.5,1.5v6.6c0,0.9-0.7,1.5-1.5,1.5h-19.7v14H506c0.9,0,1.5,0.7,1.5,1.5v6.5c0,0.8-0.6,1.5-1.5,1.5h-32.5
			c-0.9,0-1.5-0.7-1.5-1.5V205.4z"/>
	</g>
</g>
</svg>
